<svg height="200pt" viewBox="-56 0 432 432" width="200pt" xmlns="http://www.w3.org/2000/svg"><path d="m320 432h-320v-320l104-112h216zm0 0" fill="#ebebeb"/><path d="m104 112h-104l104-112zm0 0" fill="#dbdbdb"/><g fill="#ea6b65"><path d="m126.710938 196.097656c.195312-.257812.375-.523437.535156-.800781 1.003906-2.082031 1.003906-4.511719 0-6.59375-.15625-.277344-.335938-.546875-.535156-.800781-.386719-.683594-.878907-1.300782-1.453126-1.839844-.105468-.09375-.144531-.230469-.257812-.320312l-40-32c-3.449219-2.757813-8.488281-2.199219-11.246094 1.25-2.761718 3.449218-2.203125 8.488281 1.246094 11.246093l22.191406 17.761719h-25.191406c-4.417969 0-8 3.582031-8 8s3.582031 8 8 8h25.191406l-22.191406 17.753906c-3.449219 2.757813-4.007812 7.796875-1.246094 11.246094 2.757813 3.449219 7.796875 4.007812 11.246094 1.246094l40-32c.113281-.085938.152344-.222656.257812-.316406.574219-.535157 1.066407-1.152344 1.453126-1.832032zm0 0"/><path d="m248 184h-25.191406l22.191406-17.753906c3.449219-2.757813 4.007812-7.796875 1.246094-11.246094-2.757813-3.449219-7.796875-4.007812-11.246094-1.246094l-40 32c-.113281.085938-.152344.222656-.257812.316406-.574219.535157-1.066407 1.152344-1.453126 1.832032-.195312.257812-.375.523437-.535156.800781-1.003906 2.082031-1.003906 4.511719 0 6.59375.160156.277344.339844.542969.535156.800781.386719.679688.878907 1.296875 1.453126 1.832032.105468.09375.144531.230468.257812.316406l40 32c3.449219 2.761718 8.488281 2.203125 11.246094-1.246094 2.761718-3.449219 2.203125-8.488281-1.246094-11.246094l-22.191406-17.753906h25.191406c4.417969 0 8-3.582031 8-8s-3.582031-8-8-8zm0 0"/><path d="m219.34375 312c-3.257812 0-6.191406-1.976562-7.414062-5-8.550782-21.171875-29.097657-35.035156-51.929688-35.035156s-43.378906 13.863281-51.929688 35.035156c-1.675781 4.066406-6.316406 6.015625-10.394531 4.367188-4.074219-1.648438-6.058593-6.28125-4.4375-10.367188 10.996094-27.214844 37.410157-45.035156 66.761719-45.035156s55.765625 17.820312 66.761719 45.035156c.996093 2.464844.703125 5.265625-.785157 7.472656-1.488281 2.203125-3.972656 3.527344-6.632812 3.527344zm0 0"/></g></svg>